<svg class="animated" id="freepik_stories-paralympic-archery" xmlns="http://www.w3.org/2000/svg" viewBox="0 0 500 500" version="1.1" xmlns:xlink="http://www.w3.org/1999/xlink" xmlns:svgjs="http://svgjs.com/svgjs"><style>svg#freepik_stories-paralympic-archery:not(.animated) .animable {opacity: 0;}svg#freepik_stories-paralympic-archery.animated #freepik--background-simple--inject-4 {animation: 1.5s Infinite  linear spin;animation-delay: 0s;}svg#freepik_stories-paralympic-archery.animated #freepik--Clouds--inject-4 {animation: 1.5s Infinite  linear heartbeat;animation-delay: 0s;}svg#freepik_stories-paralympic-archery.animated #freepik--Plants--inject-4 {animation: 1.5s Infinite  linear shake;animation-delay: 0s;}svg#freepik_stories-paralympic-archery.animated #freepik--Character--inject-4 {animation: 1.5s Infinite  linear floating;animation-delay: 0s;}         @keyframes spin {             from {                 transform: rotate(0);               }               to {                 transform: rotate(360deg);               }         }                 @keyframes heartbeat {                0% {                    transform: scale(1);                }                10% {                    transform: scale(1.1);                }                30% {                    transform: scale(1);                }                40% {                    transform: scale(1);                }                50% {                    transform: scale(1.1);                }                60% {                    transform: scale(1);                }                100% {                    transform: scale(1);                }            }                    @keyframes shake {                10%, 90% {                    transform: translate3d(-1px, 0, 0);                  }                  20%, 80% {                    transform: translate3d(2px, 0, 0);                  }                  30%, 50%, 70% {                    transform: translate3d(-4px, 0, 0);                  }                  40%, 60% {                    transform: translate3d(4px, 0, 0);                  }            }                    @keyframes floating {                0% {                    opacity: 1;                    transform: translateY(0px);                }                50% {                    transform: translateY(-10px);                }                100% {                    opacity: 1;                    transform: translateY(0px);                }            }        </style><g id="freepik--background-simple--inject-4" class="animable" style="transform-origin: 252.73px 254.406px;"><g id="elmcqrabiruu" class="animable" style="transform-origin: 252.73px 254.406px;"><path d="M450.80179,116.8064c-3.2271-5.2293-6.7941-10.306-10.7447-15.2037-31.7958-39.421-73.3673-56.0963-120.8629-67.2735-49.0529-11.5433-106.4861-15.1759-153.5777,5.6938-11.0854,4.9128-21.5945,11.4924-29.9584,20.4062-31.5031,33.5747-42.3043,89.8351-77.408,134.2989-35.1036,44.4636-52.20546,99.8163-20.7022,152.447,13.3321,22.273,30.331,40.6482,50.4456,56.7695,24.7663,19.8496,46.1281,46.6225,74.7481,62.1183,30.0812,16.287,70.1433,21.9614,103.4315,14.5033,37.9796-8.5093,60.2562-42.3431,89.24891-65.4187,22.85619-18.1915,50.19659-30.0976,72.59359-48.8606,34.3132-28.7453,60.3276-74.9493,55.9786-120.7448-4.2187-44.4231-9.6824-90.638-33.1924-128.7357Z" style="fill: rgb(146, 227, 169); transform-origin: 252.73px 254.406px;" id="elczmmfd6m376" class="animable"></path><g id="el9kmc8w01tbl"><path d="M450.80179,116.8064c-3.2271-5.2293-6.7941-10.306-10.7447-15.2037-31.7958-39.421-73.3673-56.0963-120.8629-67.2735-49.0529-11.5433-106.4861-15.1759-153.5777,5.6938-11.0854,4.9128-21.5945,11.4924-29.9584,20.4062-31.5031,33.5747-42.3043,89.8351-77.408,134.2989-35.1036,44.4636-52.20546,99.8163-20.7022,152.447,13.3321,22.273,30.331,40.6482,50.4456,56.7695,24.7663,19.8496,46.1281,46.6225,74.7481,62.1183,30.0812,16.287,70.1433,21.9614,103.4315,14.5033,37.9796-8.5093,60.2562-42.3431,89.24891-65.4187,22.85619-18.1915,50.19659-30.0976,72.59359-48.8606,34.3132-28.7453,60.3276-74.9493,55.9786-120.7448-4.2187-44.4231-9.6824-90.638-33.1924-128.7357Z" style="fill: rgb(255, 255, 255); opacity: 0.7; transform-origin: 252.73px 254.406px;" class="animable"></path></g></g></g><g id="freepik--Clouds--inject-4" class="animable" style="transform-origin: 261.776px 164.999px;"><path d="M464.47559,53.4937s-11.134-16.7009-29.2268-16.0051c-18.0927,.6959-17.39679,14.6134-22.96379,16.701s-11.82991-6.9587-18.78861-3.4794c-6.9588,3.4794-10.4382,9.7423-14.61339,10.4382-4.17531,.6958-6.26291-5.567-13.22161-2.0877-6.9588,3.4794-11.134,7.6547-11.134,7.6547h132.2161s-2.78349-11.134-9.7422-14.6134c-6.9588-3.4794-4.8711,2.0876-12.5257,1.3917Z" style="fill: none; stroke: rgb(38, 50, 56); stroke-miterlimit: 10; transform-origin: 420.635px 52.0914px;" id="elvl9u6g4z8g" class="animable"></path><path d="M97.0538,108.8777s-6.1008-9.1512-16.0147-8.7699c-9.9138,.3813-9.5325,8.0073-12.5829,9.1512-3.0505,1.1439-6.4822-3.813-10.2952-1.9065s-5.7195,5.3382-8.0073,5.7195-3.4317-3.0504-7.2448-1.1439c-3.813,1.9065-6.1008,4.1944-6.1008,4.1944H109.2555s-1.5252-6.1009-5.3383-8.0074c-3.813-1.9065-2.6691,1.1439-6.8634,.7626Z" style="fill: none; stroke: rgb(38, 50, 56); stroke-miterlimit: 10; transform-origin: 73.0318px 108.109px;" id="elsnnah3ba8q" class="animable"></path><path d="M456.91619,285.2867s-6.1008-9.1512-16.0146-8.7699c-9.9139,.3813-9.53259,8.0073-12.583,9.1512-3.0504,1.1439-6.4821-3.813-10.2951-1.9065-3.8131,1.9065-5.7196,5.3382-8.0074,5.7195s-3.4317-3.0504-7.2447-1.1439-6.1009,4.1943-6.1009,4.1943h72.4474s-1.5252-6.1008-5.3382-8.0073-2.6691,1.1439-6.8635,.7626Z" style="fill: none; stroke: rgb(38, 50, 56); stroke-miterlimit: 10; transform-origin: 432.894px 284.518px;" id="elou2975emx5r" class="animable"></path></g><g id="freepik--Archery_target--inject-4" class="animable" style="transform-origin: 266.119px 202.344px;"><g id="eluxamgkzmry" class="animable" style="transform-origin: 266.119px 202.344px;"><path d="M158.9834,80.0447c-33.9904,29.8-55.4512,73.5435-55.4512,122.2994,0,89.7943,72.7926,162.5869,162.5869,162.5869s162.58691-72.7926,162.58691-162.5869c0-25.393-5.82131-49.4264-16.20221-70.8384" style="fill: none; stroke: rgb(38, 50, 56); stroke-miterlimit: 10; transform-origin: 266.119px 222.488px;" id="el35s3tb7fe4x" class="animable"></path><path d="M405.93149,119.3068c-28.3518-47.634-80.355-79.5496-139.8124-79.5496-37.053,0-71.21109,12.3948-98.5542,33.2642" style="fill: none; stroke: rgb(38, 50, 56); stroke-miterlimit: 10; transform-origin: 286.748px 79.532px;" id="elrchko034tm" class="animable"></path><path d="M303.60149,318.5028c49.0537-15.8168,84.5411-61.8435,84.5411-116.1587,0-67.3917-54.6318-122.0235-122.0235-122.0235-33.7428,0-64.2867,13.696-86.3758,35.8321" style="fill: none; stroke: rgb(38, 50, 56); stroke-miterlimit: 10; transform-origin: 283.943px 199.412px;" id="elrsc6mxdmxld" class="animable"></path><path d="M170.8095,126.141c-16.7167,20.8809-26.7139,47.3745-26.7139,76.2031,0,67.3917,54.6318,122.0235,122.0235,122.0235,8.8698,0,17.5186-.9463,25.8508-2.7436" style="fill: none; stroke: rgb(38, 50, 56); stroke-miterlimit: 10; transform-origin: 218.033px 225.254px;" id="el66uv6vxhudr" class="animable"></path><path d="M315.94129,140.5589c-13.6209-10.9975-30.9525-17.5826-49.8222-17.5826-43.8336,0-79.3678,35.5342-79.3678,79.3678,0,27.5289,14.0155,51.7842,35.3002,66.0198" style="fill: none; stroke: rgb(38, 50, 56); stroke-miterlimit: 10; transform-origin: 251.346px 195.67px;" id="elromv1mhnp0c" class="animable"></path><path d="M231.59889,273.8317c10.4373,5.0493,22.14811,7.8802,34.5202,7.8802,43.8336,0,79.3678-35.5342,79.3678-79.3678,0-21.6979-8.707-41.3622-22.8176-55.6895" style="fill: none; stroke: rgb(38, 50, 56); stroke-miterlimit: 10; transform-origin: 288.543px 214.183px;" id="eli1wduwlk2p" class="animable"></path><circle cx="266.11909" cy="202.3441" r="43.8774" style="fill: none; stroke: rgb(38, 50, 56); stroke-miterlimit: 10; transform-origin: 266.119px 202.344px;" id="el9bn8mlyb2ne" class="animable"></circle></g></g><g id="freepik--Plants--inject-4" class="animable" style="transform-origin: 208.54px 403.593px;"><path d="M403.71319,409.4378c-2.576-.5032-6.7128,.2173-8.5911,.6473-1.5612-.1076-3.1208-.135-4.6726-.079,1.6994-.6547,6.3044-2.4627,6.81951-5.7117,.47639-4.2674-5.25151-2.7644-6.34631,.5039-1,2.6503-2.04269,4.5382-2.8602,5.3613-1.7524,.1571-3.4903,.4142-5.2049,.7722,1.5165-.9053,5.7963-3.4752,5.7472-6.7989-.2482-4.2849-5.5866-1.8434-6.1143,1.5594-.53749,2.7959-1.2487,4.838-1.917,5.7777-1.7011,.4477-3.3733,.9953-5.0094,1.6352,1.3156-1.1217,5.1577-4.3905,4.5424-7.6831-.96-4.1825-5.7982-.8886-5.7524,2.5544-.0624,2.8534-.4253,4.9897-.9308,6.0253-1.601,.7216-3.1598,1.5368-4.6695,2.4392,1.1274-1.3431,4.36021-5.2022,3.203-8.3327-1.64379-3.9644-5.8777,.0982-5.26379,3.4907,.411,2.8198,.40589,4.9876,.07789,6.1001-1.4596,.9784-2.8671,2.0399-4.2093,3.1875,.4685-.7966,1.34-2.2967,1.8735-3.9546,1.15591-.9636,1.58791-2.165,.44-2.9217-.04209-.66-.2038-1.2952-.5363-1.8708-.1794-.2854-.3669-.5134-.5587-.7003,2.8346-.6608,4.8022-2.9268,1.2372-4.2504-3.1466-1.2941-6.099,2.0052-7.1947,3.5893,.3548-1.6148,.7945-3.2091,1.3241-4.7728,1.0082-.57,3.0855-.9766,5.7836-.718,3.2571,.2002,6.3924-1.8833,2.7801-3.9702-2.8845-1.7965-6.3371,.9429-7.681,2.313,.6132-1.5228,1.3089-3.0124,2.0858-4.4609,1.0864-.3938,3.2046-.4483,5.8265,.2587,3.1761,.7434,6.62131-.7952,3.4116-3.4592-2.5626-2.2671-6.4638-.0926-7.9976,1.0288,.8597-1.4078,1.8027-2.7673,2.8179-4.0765,1.1338-.217,3.2451,.0761,5.7306,1.2165,3.0084,1.2616,6.688,.3035,3.97681-2.8655-2.15971-2.683-6.43321-1.1375-8.12161-.2832,1.0143-1.1655,2.09461-2.2801,3.2359-3.3402,1.6789-.7381,4.8055-2.0224,6.1528-2.4818,1.8468-.8004,3.802-2.189,3.6454-3.691-.1317-1.4965-2.3563-3.0401-5.0766-.9347-2.1215,1.5449-4.4087,5.0664-5.3718,6.7355-1.1413,1.0708-2.2228,2.1948-3.2377,3.3702,.6768-1.6909,2.4857-6.2955,.4555-8.8839-2.8025-3.2529-5.5993,1.9669-3.9495,4.9931,1.2614,2.5363,1.9352,4.5851,1.9821,5.7442-1.0774,1.3909-2.07149,2.8394-2.9762,4.3392,.369-1.7277,1.3979-6.6121-1.0707-8.8378-3.30859-2.7341-5.1525,2.8392-3.0183,5.5413,1.6829,2.2965,2.6951,4.2075,2.9289,5.3366-.8295,1.5511-1.5661,3.1492-2.2108,4.7838,.0734-1.7272,.293-6.7675-2.5386-8.5573-3.71779-2.1428-4.5965,3.6437-2.0431,5.9535,2.0488,1.9874,3.3672,3.7069,3.782,4.782-.56069,1.6641-1.0243,3.3613-1.3903,5.0816-.2169-1.74-.8447-6.7349-3.9259-8.0173-4.0238-1.4937-3.9282,4.3733-1.0247,6.2322,2.346,1.6179,3.931,3.0968,4.5231,4.0942-.2764,1.7352-.4565,3.4889-.529,5.2534-.523-1.7487-1.9843-6.5207-5.19989-7.2548-4.21861-.7998-3.14241,5.0197,.03549,6.3804,2.5629,1.2007,4.3673,2.3962,5.1331,3.2905,.02641,2.0612,.1909,4.1297,.5079,6.1918-.117,.1477-.0987,.3592,.0378,.4847l.0204,.0178c.1548,.1226,.3797,.0963,.5024-.0584,1.2771-1.6125,2.6614-3.1189,4.13291-4.5206,1.16649-.067,3.23169,.5168,5.53569,2.0069,2.80831,1.6747,6.5865,1.2711,4.3634-2.2576-1.7239-2.9742-6.1727-2.077-7.9909-1.4677,1.2892-1.0922,2.6387-2.1038,4.0367-3.0382,1.1523,.1534,3.0593,1.0894,5.0515,2.9372,2.4705,2.1358,6.2351,2.3876,4.6378-1.4659-1.193-3.1863-5.6196-3.1045-7.5259-2.8295,1.4246-.8388,2.8919-1.6014,4.3981-2.2776,1.10361,.351,2.8154,1.5965,4.4618,3.7492,2.0697,2.5228,5.7301,3.4025,4.8011-.6645-.6466-3.3362-5.0028-4.002-6.9217-4.0544,1.5331-.5869,3.0979-1.0907,4.6879-1.507,1.0279,.5279,2.5093,2.043,3.77551,4.4454,1.61679,2.8329,5.08839,4.3105,4.85629,.1456-.0826-3.4206-4.3305-4.7993-6.1962-5.1601,1.6164-.328,3.2542-.5621,4.9041-.7091,.93081,.6829,2.153,2.4294,3.00881,5.0268,1.12279,3.0628,4.32889,5.1072,4.80589,.9639,.4962-3.4085-3.5447-5.4881-5.3195-6.1439,1.5447-.05,3.0968-.0167,4.65061,.0982,1.685,.7289,4.753,2.1459,6.00459,2.8193,1.8432,.8086,4.1916,1.2963,5.18541,.1595,1.007-1.1149,.62429-3.7953-2.76981-4.3557Zm-43.1576,2.4983c-.5595,.7073-.963,1.6762-1.0691,2.6735-1.3032,1.1228-2.2243,2.7366-2.6617,3.7031,.0771-1.6879,.25421-3.3652,.5209-5.0255,.6074-.5014,1.7154-1.011,3.2099-1.3511Zm-3.3588,14.4027c-.25179-1.8188-.3886-3.6414-.4114-5.4584,.57261-.6922,1.7882-1.5115,3.5301-2.1602,.4012,1.6508,.5492,2.9602,.4544,3.7876-1.2593,1.1999-2.4526,2.4783-3.5731,3.831Z" style="fill: rgb(38, 50, 56); transform-origin: 377.551px 403.593px;" id="el3wfh1g4ow2l" class="animable"></path><path d="M12.3687,415.0296c1.786-.3489,4.6543,.1507,5.9566,.4488,1.0825-.0746,2.1639-.0936,3.2398-.0548-1.1783-.4539-4.3712-1.7075-4.7283-3.9602-.3303-2.9588,3.6411-1.9167,4.4002,.3494,.6934,1.8376,1.4163,3.1466,1.9831,3.7173,1.2151,.1089,2.4201,.2872,3.6089,.5354-1.0515-.6277-4.0189-2.4095-3.9849-4.714,.1721-2.971,3.8735-1.2782,4.2394,1.0811,.3727,1.9386,.8658,3.3545,1.3291,4.006,1.1796,.3104,2.339,.6902,3.4734,1.1338-.9123-.7777-3.5762-3.0442-3.1495-5.3271,.6656-2.9,4.0202-.6161,3.9884,1.7711,.0433,1.9784,.2949,3.4596,.6454,4.1777,1.11,.5003,2.1909,1.0655,3.2376,1.6912-.7817-.9312-3.0232-3.6069-2.2208-5.7775,1.1398-2.7487,4.0753,.0681,3.6497,2.4203-.285,1.9551-.2815,3.4582-.054,4.2295,1.012,.6784,1.9879,1.4144,2.9185,2.2101-.3249-.5523-.9291-1.5924-1.299-2.7419-.8014-.6682-1.101-1.5012-.3051-2.0259,.0292-.4575,.1413-.898,.3719-1.2971,.1244-.1978,.2544-.3559,.3874-.4855-1.9654-.4582-3.3297-2.0293-.8579-2.947,2.1817-.8973,4.2288,1.3903,4.9885,2.4886-.246-1.1196-.5509-2.225-.9181-3.3092-.699-.3952-2.1393-.6772-4.01-.4979-2.2584,.1389-4.4322-1.3057-1.9276-2.7527,2-1.2456,4.3938,.6538,5.3256,1.6038-.4251-1.0559-.9075-2.0887-1.4462-3.093-.7532-.2731-2.2219-.3109-4.0398,.1793-2.2022,.5154-4.5909-.5513-2.3655-2.3984,1.7768-1.572,4.4818-.0642,5.5452,.7133-.596-.9761-1.2499-1.9187-1.9538-2.8265-.7861-.1504-2.25,.0528-3.9733,.8435-2.0859,.8747-4.6372,.2104-2.7574-1.9868,1.4975-1.8603,4.4606-.7887,5.6311-.1964-.7032-.8081-1.4522-1.5809-2.2435-2.3159-1.1641-.5117-3.332-1.4023-4.2661-1.7208-1.2805-.5549-2.6362-1.5178-2.5275-2.5591,.0913-1.0377,1.6337-2.1079,3.5198-.6481,1.4709,1.0711,3.0568,3.5128,3.7246,4.67,.7913,.7425,1.5412,1.5219,2.2448,2.3368-.4692-1.1724-1.7234-4.365-.3158-6.1597,1.9432-2.2554,3.8823,1.3638,2.7384,3.462-.8746,1.7585-1.3417,3.1791-1.3743,3.9828,.7471,.9643,1.4363,1.9687,2.0636,3.0086-.2558-1.1979-.9693-4.5846,.7424-6.1277,2.294-1.8957,3.5725,1.9685,2.0927,3.842-1.1668,1.5923-1.8686,2.9173-2.0307,3.7002,.5751,1.0754,1.0858,2.1835,1.5328,3.3168-.0509-1.1975-.2032-4.6922,1.7602-5.9332,2.5777-1.4857,3.187,2.5264,1.4165,4.1279-1.4205,1.3779-2.3346,2.5702-2.6222,3.3156,.3888,1.1538,.7102,2.3306,.964,3.5234,.1504-1.2065,.5857-4.6697,2.722-5.5589,2.7899-1.0356,2.7236,3.0323,.7105,4.3212-1.6266,1.1217-2.7256,2.1471-3.1362,2.8387,.1917,1.2031,.3166,2.4191,.3669,3.6424,.3625-1.2124,1.3758-4.5211,3.6053-5.0301,2.925-.5546,2.1788,3.4804-.0246,4.4239-1.777,.8325-3.028,1.6614-3.5591,2.2815-.0182,1.4291-.1323,2.8633-.3521,4.293,.0811,.1025,.0684,.2491-.0262,.3361l-.0142,.0124c-.1073,.085-.2632,.0668-.3483-.0405-.8855-1.118-1.8453-2.1625-2.8656-3.1344-.8087-.0464-2.2406,.3583-3.8382,1.3915-1.9471,1.1612-4.5667,.8814-3.0253-1.5653,1.1952-2.0622,4.2798-1.4401,5.5405-1.0177-.8939-.7572-1.8296-1.4586-2.7989-2.1065-.799,.1064-2.1211,.7553-3.5024,2.0365-1.713,1.4809-4.3232,1.6555-3.2157-1.0163,.8272-2.2093,3.8964-2.1526,5.2181-1.9619-.9877-.5816-2.0051-1.1104-3.0494-1.5792-.7652,.2434-1.9521,1.107-3.0936,2.5995-1.435,1.7492-3.973,2.3592-3.3289-.4607,.4483-2.3131,3.4687-2.7748,4.7992-2.8111-1.063-.4069-2.1479-.7563-3.2504-1.0449-.7127,.366-1.7398,1.4165-2.6177,3.0822-1.1211,1.9642-3.5281,2.9887-3.3671,.101,.0572-2.3717,3.0025-3.3277,4.2961-3.5778-1.1207-.2274-2.2563-.3897-3.4003-.4917-.6454,.4735-1.4928,1.6845-2.0861,3.4854-.7785,2.1236-3.0015,3.5411-3.3323,.6683-.344-2.3633,2.4578-3.8052,3.6884-4.2599-1.0711-.0346-2.1473-.0116-3.2246,.0681-1.1683,.5054-3.2955,1.4879-4.1633,1.9548-1.278,.5606-2.9062,.8988-3.5953,.1106-.6982-.7731-.4328-2.6316,1.9205-3.0201Zm29.9235,1.7322c.3879,.4905,.6676,1.1622,.7412,1.8537,.9036,.7785,1.5423,1.8975,1.8455,2.5675-.0534-1.1703-.1762-2.3332-.3611-3.4844-.4212-.3476-1.1894-.701-2.2256-.9368Zm2.3288,9.9862c.1746-1.2611,.2694-2.5248,.2852-3.7846-.397-.4799-1.2398-1.048-2.4476-1.4978-.2782,1.1446-.3807,2.0525-.315,2.6262,.8731,.8319,1.7005,1.7183,2.4774,2.6562Z" style="fill: rgb(38, 50, 56); transform-origin: 30.5086px 410.977px;" id="elfvwdskt73l" class="animable"></path></g><g id="freepik--Shadow--inject-4" class="animable" style="transform-origin: 196.216px 452.759px;"><ellipse cx="196.21592" cy="452.75877" rx="163.87842" ry="13.56953" style="fill: rgb(38, 50, 56); stroke: rgb(38, 50, 56); stroke-miterlimit: 10; transform-origin: 196.216px 452.759px;" id="eltgdnbxyz0id" class="animable"></ellipse></g><g id="freepik--Floor--inject-4" class="animable" style="transform-origin: 249.432px 427.673px;"><line x1="12.4199" y1="427.6732" x2="486.44379" y2="427.6732" style="fill: rgb(38, 50, 56); stroke: rgb(38, 50, 56); stroke-miterlimit: 10; transform-origin: 249.432px 427.673px;" id="elfkh2f7xba7" class="animable"></line></g><g id="freepik--Character--inject-4" class="animable" style="transform-origin: 263.109px 249.722px;"><g id="el97qyq4e76wo" class="animable" style="transform-origin: 263.109px 249.722px;"><path d="M203.11869,251.8705l7.9866-11.6668-9.59529,.1811s-.40351,9.3932,1.60869,11.4857Z" style="fill: rgb(38, 50, 56); stroke: rgb(38, 50, 56); stroke-miterlimit: 10; transform-origin: 206.291px 246.037px;" id="eled56s4m9k9s" class="animable"></path><g id="el0001tzlrk4foe1" class="animable" style="transform-origin: 351.017px 214.793px;"><path d="M285.53879,236.1208l-.5352-3.9639,194.0398-26.1668c1.0945-.1476,2.1015,.6199,2.2493,1.7144h0c.1477,1.0947-.62,2.1019-1.71469,2.2495l-194.03921,26.1668Z" style="fill: rgb(38, 50, 56); stroke: rgb(38, 50, 56); stroke-miterlimit: 10; transform-origin: 383.157px 221.046px;" id="elo8g4n1pv6bd" class="animable"></path><path d="M484.70319,206.4344c-.5279-1.5247-2.12619-2.4135-3.72519-2.1978l-10.50611,1.4167c-1.759,.2372-3.0215,1.8142-2.86789,3.5825h0c.163,1.8772,1.852,3.2439,3.72189,3.0116l10.6436-1.3219c2.0786-.2802,3.4599-2.3938,2.7337-4.4911Z" style="fill: rgb(38, 50, 56); stroke: rgb(38, 50, 56); stroke-miterlimit: 10; transform-origin: 476.245px 208.239px;" id="elk1tpjfd30wn" class="animable"></path><line x1="223.25969" y1="208.6978" x2="373.345" y2="191.0637" style="fill: none; stroke: rgb(38, 50, 56); stroke-miterlimit: 10; transform-origin: 298.302px 199.881px;" id="elurhwgcbus7m" class="animable"></line><path d="M257.10649,143.3083s.6447-13.1938-5.21049-27.0256c-5.85521-13.8319-22.51241-32.87-28.41751-43.5072-5.9051-10.6371-6.6589-17.7353-6.0998-27.0497,.559-9.3144,3.539-11.1663,3.6489-9.7736,.1098,1.3926-5.3794,12.3804,.37941,25.0431,10.66709,23.4557,24.65379,32.9598,34.26269,55.5719,9.609,22.6121,17.3311,42.0745,16.5574,43.4722s-1.6223,1.5724-2.7804,1.1032c-1.158-.4692-12.3402-17.8343-12.3402-17.8343Z" style="fill: rgb(255, 255, 255); stroke: rgb(38, 50, 56); stroke-miterlimit: 10; transform-origin: 244.753px 98.4575px;" id="el1h0pz2xjef4" class="animable"></path><path d="M278.96859,281.1387s3.2921,12.7927,.34641,27.5211c-2.94571,14.7284-15.42151,36.7344-19.06031,48.3439-3.6388,11.6094-2.94569,18.7137-.5198,27.7241,2.4258,9.0103,5.71811,10.2232,5.5448,8.837-.1733-1.3862-7.7654-11.0413-4.6785-24.6051,5.7181-25.125,17.5009-37.2542,22.3526-61.3395s8.4905-44.7051,7.4508-45.9181c-1.03959-1.2129-1.906-1.2129-2.9457-.5198-1.0396,.6931-8.4903,19.9564-8.4903,19.9564Z" style="fill: rgb(255, 255, 255); stroke: rgb(38, 50, 56); stroke-miterlimit: 10; transform-origin: 274.152px 327.38px;" id="eluqz3i5wjn8" class="animable"></path><path d="M287.35369,208.4731s4.4109-.2451,5.7587,.6126-.6126,14.3354-1.5928,15.8057-8.2092,1.5929-8.2092,1.5929c0,0,2.573-8.8218,2.6955-10.9048,.1226-2.0829,1.3478-7.1064,1.3478-7.1064Z" style="fill: rgb(38, 50, 56); stroke: rgb(38, 50, 56); stroke-miterlimit: 10; transform-origin: 288.44px 217.462px;" id="el3esc8ks93sm" class="animable"></path><path d="M286.38269,252.1886c.23531-1.0591,3.6482-8.8261,3.4127-11.0621-.2353-2.236-1.0591-3.2952-1.0591-4.1189,0-.8238-.2354-5.1781-.2354-5.1781,0,0-2.4713-.4707-3.0597-2.3536-.5884-1.883-.9415-3.6482-.5884-4.9427,.353-1.2945,2.1183-1.5299,2.1183-6.3549v-11.2975l-2.4714-2.236-5.178-18.9469s-4.0012-13.5335-4.94269-14.8281c-.94151-1.2945-4.47191-3.0598-4.47191-5.2957s3.5304-5.0604,3.5304-5.7665c0-.706-1.29449-2.1183-1.29449-2.1183l-12.12131-16.8286-3.0598,2.236s4.9427,21.3006,5.8842,24.2426c.9415,2.9421,1.1768,4.8251,2.8244,8.0025,1.64751,3.1774,2.8243,8.3555,4.1189,12.239l2.589,24.5957,.7627,17.9208,5.0038,.5554s1.2945,5.6488,1.2945,10.5915,.353,8.2378-.4707,10.003c-.8238,1.7652-2.1183,2.7067-2.236,4.5896-.11769,1.883,1.8829,24.3604,2.236,25.3019,.353,.9414,1.6475,1.5298,2.47131,1.2945,.82379-.2354,3.76579-11.5329,5.29569-16.8287,1.5299-5.2957,2.236-6.4726,1.0591-9.0615-1.17679-2.5891-1.6475-3.2952-1.4121-4.3544Zm-20.0061-83.5548c0-.7061,1.4122-.7061,1.4122-.7061,.8238,.8238,1.0591,1.1769,1.2945,2.1184,.2353,.9414-1.0592,.5883-1.883,.353-.8237-.2354-.8237-1.0591-.8237-1.7653Zm5.8841,7.7671c-.5884,.4707-5.0604-2.4713-5.178-3.4128-.11769-.9415,4.4719-.353,4.4719-.353,.8238,2.4713,1.2945,3.2951,.7061,3.7658Zm6.3549,19.4177c-.1177,.8238-3.7658,1.0591-4.472,.8238-.7061-.2354,.3531-4.0012,.3531-4.0012,0,0,2.3537-1.0592,2.942-.9415,.5885,.1177,1.2945,3.2951,1.1769,4.1189Zm4.9427,59.0768c-.3531,0-1.1769-.2354-1.7652-.5885-.5885-.353-1.0592-1.7652-.8238-2.4713,.2353-.7061,3.5304-.353,3.5304-.353-.11769,1.0591-.5884,3.4128-.9414,3.4128Zm-1.883-5.8842c-.5884-.353,0-9.7676,0-9.7676,0,0,3.7659-.8238,4.58971-.5885,.82379,.2354-.11771,9.4147-.353,9.7677-.23551,.3531-3.64821,.9415-4.23671,.5884Z" style="fill: rgb(146, 227, 169); stroke: rgb(38, 50, 56); stroke-miterlimit: 10; transform-origin: 273.384px 211.673px;" id="el2srg1tj8phu" class="animable"></path><polygon points="267.67109 184.2857 264.25829 184.9918 265.78819 192.2881 276.73269 190.5229 276.968 188.2869 306.74179 184.0503 308.62469 195.5832 311.33139 195.2302 311.68449 198.0546 316.03869 197.2308 315.68569 194.2887 314.39119 194.2887 310.39 166.7509 311.91979 166.1625 311.33139 162.8674 306.62409 163.4558 306.97719 165.8095 304.15279 166.6333 306.03569 179.1076 275.55579 184.0503 274.73209 181.3436 270.02469 182.0497 267.67109 184.2857" style="fill: rgb(38, 50, 56); stroke: rgb(38, 50, 56); stroke-miterlimit: 10; transform-origin: 290.148px 180.461px;" id="el0wujmjs9e9xm" class="animable"></polygon><circle cx="312.56709" cy="186.4628" r="2.2948" style="fill: none; stroke: rgb(38, 50, 56); stroke-miterlimit: 10; transform-origin: 312.567px 186.463px;" id="el3njdvsni8uq" class="animable"></circle><line x1="264.96439" y1="188.0515" x2="308.38939" y2="181.1082" style="fill: none; stroke: rgb(255, 255, 255); stroke-miterlimit: 10; transform-origin: 286.677px 184.58px;" id="elhtbkihlr89q" class="animable"></line><line x1="305.80029" y1="166.5156" x2="310.39" y2="194.9948" style="fill: none; stroke: rgb(255, 255, 255); stroke-miterlimit: 10; transform-origin: 308.095px 180.755px;" id="elg1i96ayb21" class="animable"></line><path d="M261.64229,146.0893c.167,.5606,.02471,1.0978-.3179,1.1999-.3426,.102-.7557-.2697-.9227-.8303s-.02469-1.0978,.3179-1.1998c.3426-.1021,.7557,.2696,.9227,.8302Z" style="fill: none; stroke: rgb(38, 50, 56); stroke-miterlimit: 10; transform-origin: 261.022px 146.274px;" id="el0a3wdw8avlsu" class="animable"></path><path d="M264.27219,150.1325c.206,.6913-.0848,1.3881-.6495,1.5564-.56469,.1682-1.1894-.2558-1.3954-.9472-.206-.6913,.0848-1.3881,.6495-1.5563,.5647-.1683,1.1895,.2558,1.3954,.9471Z" style="fill: none; stroke: rgb(38, 50, 56); stroke-miterlimit: 10; transform-origin: 263.25px 150.437px;" id="el4n2jod5yov8" class="animable"></path><path d="M266.43769,154.1324c.206,.6913-.0848,1.3881-.6495,1.5563-.5647,.1683-1.1895-.2558-1.3954-.9471-.206-.6913,.0848-1.3881,.6495-1.5564,.56471-.1682,1.1894,.2558,1.3954,.9472Z" style="fill: none; stroke: rgb(38, 50, 56); stroke-miterlimit: 10; transform-origin: 265.415px 154.437px;" id="el2htv57u8ua7" class="animable"></path><path d="M272.143,208.0576l14.82809-1.1768s.1177,11.7683-.1177,13.5335c-.23539,1.7653-1.8829,5.8842-4.1189,7.5317-2.236,1.6476-4.5896,2.7067-4.5896,2.7067l-5.0038-.5554-.99809-22.0397Z" style="fill: rgb(255, 255, 255); stroke: rgb(38, 50, 56); stroke-miterlimit: 10; transform-origin: 279.572px 218.767px;" id="elz6ffbz9liy" class="animable"></path><path d="M275.42839,204.1425l-6.1763,.8694c-.6114,.086-1.1769-.3399-1.2629-.9513h0c-.0861-.6114,.33981-1.1768,.9512-1.2629l6.1763-.8694c.6114-.086,1.1769,.3398,1.2629,.9513h0c.0861,.6114-.3398,1.1768-.9512,1.2629Z" style="fill: rgb(255, 255, 255); stroke: rgb(38, 50, 56); stroke-miterlimit: 10; transform-origin: 272.184px 203.47px;" id="elf8xb337w8uu" class="animable"></path><path d="M234.21029,207.7511c.0859,.9701-2.32029,1.9757-5.37429,2.246-3.05411,.2704-5.59951-.2969-5.68531-1.267-.0859-.9701,2.3202-1.9757,5.37431-2.246,3.054-.2704,5.59939,.2969,5.68529,1.267Z" style="fill: rgb(255, 255, 255); stroke: rgb(38, 50, 56); stroke-miterlimit: 10; transform-origin: 228.681px 208.241px;" id="eluy8lrtp6f1o" class="animable"></path><path d="M223.15069,208.7301s-4.5935-.0323-5.6384,.4902c-1.045,.5225,.2612,.5225,1.6981,.6531,1.4368,.1306,3.9403-1.1433,3.9403-1.1433Z" style="fill: rgb(146, 227, 169); stroke: rgb(38, 50, 56); stroke-miterlimit: 10; transform-origin: 220.143px 209.306px;" id="el3ccl8ziiukp" class="animable"></path><path d="M260.03979,255.5353c-.7735,0-1.51079-.4516-1.837-1.207-.4384-1.0137,.0284-2.1909,1.042-2.6294l53.211-23.001c1.0136-.4389,2.1914,.0279,2.6299,1.0425,.4384,1.0137-.0284,2.1909-1.042,2.6294l-53.211,23.001c-.2588,.1118-.5283,.1645-.7929,.1645Z" style="fill: rgb(38, 50, 56); stroke: rgb(38, 50, 56); stroke-miterlimit: 10; transform-origin: 286.644px 242.034px;" id="ele9wepvkvnq" class="animable"></path><path d="M305.86689,246.6091c-.4082,0-.8203-.1246-1.1758-.3833-.8925-.6504-1.0888-1.9014-.4384-2.7945l10.1269-13.9033c.64841-.8916,1.90041-1.0894,2.794-.439,.8925,.6504,1.0888,1.9014,.43841,2.7945l-10.12691,13.9033c-.3907,.5371-1,.8223-1.6182,.8223Z" style="fill: rgb(38, 50, 56); stroke: rgb(38, 50, 56); stroke-miterlimit: 10; transform-origin: 310.932px 237.657px;" id="eloduececrc0r" class="animable"></path><path d="M291.51959,224.8914s-.5753,1.0573-1.1638,1.8665-.2943,1.9126,.29421,2.354c.58849,.4413,1.54479,.1471,2.20689-1.1035,.662-1.2505,2.0597-5.0757,2.0597-5.0757l-3.397,1.9587Z" style="fill: none; stroke: rgb(38, 50, 56); stroke-miterlimit: 10; transform-origin: 292.476px 226.119px;" id="elwl98maqeovd" class="animable"></path><path d="M290.78439,220.6031s-1.7153,3.0631-.4901,3.6757c1.2253,.6126,2.8181,0,4.1659-.8577,1.34781-.8576,2.573-1.4703,2.6955-3.4307,.1226-1.9604-.7351-2.9406-.7351-2.9406,0,0-2.4505,2.8181-3.6758,3.0632-1.2252,.245-1.9604,.4901-1.9604,.4901Z" style="fill: rgb(255, 255, 255); stroke: rgb(38, 50, 56); stroke-miterlimit: 10; transform-origin: 293.51px 220.788px;" id="elgtkaf0v1nzj" class="animable"></path><path d="M291.39709,217.6625s-1.5929,1.7153-.6127,2.9406c.9802,1.2252,3.6758,.7351,4.7785-.2451s1.5928-3.9208,.6126-6.4938-2.2054-3.1857-2.818-2.6956c-.6127,.4901-1.9604,6.4939-1.9604,6.4939Z" style="fill: rgb(255, 255, 255); stroke: rgb(38, 50, 56); stroke-miterlimit: 10; transform-origin: 293.584px 216.172px;" id="el3nr3ht6oewa" class="animable"></path><path d="M290.17179,208.9632s-.9802,.6126-.8577,2.328c.1225,1.7153,1.2253,2.4505,1.4703,2.818,.2451,.3676-1.3478,1.7154-.6126,2.6956,.73521,.9802,2.6956,.3676,3.9208-.9802,1.2253-1.3478-.7351-5.5136-.9802-6.7389-.245-1.2253-1.1027-.7352-2.9406-.1225Z" style="fill: rgb(255, 255, 255); stroke: rgb(38, 50, 56); stroke-miterlimit: 10; transform-origin: 291.898px 212.807px;" id="eljglfgecf01m" class="animable"></path></g><path d="M213.04719,218.7753s12.7156,.6968,13.7607,.3484c1.04511-.3484,6.0964-2.9612,10.2769-2.9612s21.5989,1.5677,22.81821,1.7419c1.21929,.1742,6.96739-.5226,6.96739-.5226,0,0,5.0514-5.2255,6.9674-5.5739,1.9161-.3484,6.6191-.3484,7.3158-.5225,.6968-.1742,4.8772-1.5677,4.5288,.5225-.3483,2.0902-.6967,2.6128-2.0902,3.1353-1.3935,.5226-5.5739,.6968-5.5739,.6968,0,0-1.21929,4.3546-2.4386,6.2706-1.2193,1.9161-2.6128,3.1354-2.6128,3.1354,0,0,.3484,2.7869,.3484,3.4837,0,.6967-.1742,1.5676-.1742,1.5676,0,0-3.4837,.6968-5.2256,1.7419-1.7418,1.0451-31.0049,10.1027-34.3144,10.1027s-14.8058-.5225-14.8058-.5225l-17.7668,3.1353s.3483-13.2381,2.4386-17.0701c2.0902-3.8321,9.5801-8.7093,9.5801-8.7093Z" style="fill: rgb(255, 255, 255); stroke: rgb(38, 50, 56); stroke-miterlimit: 10; transform-origin: 243.366px 227.612px;" id="elta7rpjzv9p" class="animable"></path><g id="elr5t47n862o" class="animable" style="transform-origin: 95.019px 387.88px;"><path d="M127.7209,393.1814c5.3874-35.8295-6.0291-67.2482-25.4994-70.1758-19.4703-2.9276-39.6215,23.7445-45.009,59.5739-5.3874,35.8294,6.029,67.2482,25.4994,70.1758,19.4703,2.9276,39.6215-23.7445,45.009-59.5739Zm-39.8148,52.7609c-16.0693-2.4162-25.2504-29.9505-20.5066-61.4993,4.7438-31.5489,21.6162-55.1656,37.6854-52.7494,16.0693,2.4162,25.2504,29.9504,20.5066,61.4993s-21.6161,55.1657-37.6854,52.7494Z" style="fill: rgb(38, 50, 56); stroke: rgb(38, 50, 56); stroke-miterlimit: 10; transform-origin: 92.4667px 387.88px;" id="elvf2ovvggowa" class="animable"></path><g id="el56tvqnurq9v"><ellipse cx="97.79932" cy="389.15997" rx="57.76648" ry="28.0829" style="fill: rgb(38, 50, 56); stroke: rgb(38, 50, 56); stroke-miterlimit: 10; transform-origin: 97.7993px 389.16px; transform: rotate(-81.4489deg);" class="animable"></ellipse></g><g id="eln3szy5c56uk"><ellipse cx="99.3771" cy="389.3972" rx="53.93506" ry="24.62474" style="fill: rgb(38, 50, 56); stroke: rgb(38, 50, 56); stroke-miterlimit: 10; transform-origin: 99.3771px 389.397px; transform: rotate(-81.4489deg);" class="animable"></ellipse></g></g><polygon points="100.5576 361.6669 172.5439 361.6669 186.9412 335.0686 91.2848 335.0686 100.5576 361.6669" style="fill: rgb(38, 50, 56); stroke: rgb(38, 50, 56); stroke-miterlimit: 10; transform-origin: 139.113px 348.368px;" id="el2u8pysljd9p" class="animable"></polygon><polygon points="191.495 278.9496 201.60569 278.9496 196.438 326.8069 187.6754 326.8069 191.495 278.9496" style="fill: rgb(38, 50, 56); stroke: rgb(38, 50, 56); stroke-miterlimit: 10; transform-origin: 194.641px 302.878px;" id="eljwofmyvzhkc" class="animable"></polygon><g id="elg1mjbe7d28e" class="animable" style="transform-origin: 152.773px 438.409px;"><polygon points="139.601 412.9114 149.1179 415.8397 152.7782 430.969 147.1657 431.213 145.2135 424.3804 138.3809 422.1842 139.601 412.9114" style="fill: rgb(209, 209, 209); stroke: rgb(38, 50, 56); stroke-miterlimit: 10; transform-origin: 145.58px 422.062px;" id="eltd5vbln7ex" class="animable"></polygon><g id="elmz82dm5hxhe" class="animable" style="transform-origin: 155.68px 450.975px;"><ellipse cx="155.68027" cy="450.97457" rx="11.48547" ry="12.93113" style="fill: rgb(38, 50, 56); stroke: rgb(38, 50, 56); stroke-miterlimit: 10; transform-origin: 155.68px 450.975px;" id="elzqiiufp0vmt" class="animable"></ellipse><ellipse cx="156.5267" cy="450.9746" rx="7.1911" ry="8.1265" style="fill: rgb(255, 255, 255); stroke: rgb(38, 50, 56); stroke-miterlimit: 10; transform-origin: 156.527px 450.975px;" id="elayweg9cufua" class="animable"></ellipse></g><polygon points="149.1745 431.213 143.7129 431.213 147.4075 441.8987 154.9574 441.8987 149.1745 431.213" style="fill: rgb(38, 50, 56); stroke: rgb(38, 50, 56); stroke-miterlimit: 10; transform-origin: 149.335px 436.556px;" id="el7moh0fuvzdr" class="animable"></polygon><path d="M149.1745,431.213l6.491,20.2521c.483,1.5068,2.153,2.2763,3.6122,1.6644h0c1.2841-.5385,1.9474-1.9659,1.5309-3.2946l-6.0118-19.1807-5.6223,.5588Z" style="fill: rgb(209, 209, 209); stroke: rgb(38, 50, 56); stroke-miterlimit: 10; transform-origin: 155.054px 441.997px;" id="elfu20vh31zfk" class="animable"></path></g><g id="elqjcb1nkrfs" class="animable" style="transform-origin: 66.6865px 438.409px;"><polygon points="53.5143 412.9114 63.0311 415.8397 66.6914 430.969 61.0789 431.213 59.1267 424.3804 52.2941 422.1842 53.5143 412.9114" style="fill: rgb(209, 209, 209); stroke: rgb(38, 50, 56); stroke-miterlimit: 10; transform-origin: 59.4928px 422.062px;" id="elry3aua0ygi" class="animable"></polygon><g id="elyhj5alcpule" class="animable" style="transform-origin: 69.5935px 450.975px;"><ellipse cx="69.59348" cy="450.97457" rx="11.48547" ry="12.93113" style="fill: rgb(38, 50, 56); stroke: rgb(38, 50, 56); stroke-miterlimit: 10; transform-origin: 69.5935px 450.975px;" id="elhg01mnpvnfj" class="animable"></ellipse><ellipse cx="70.4399" cy="450.9746" rx="7.1911" ry="8.1265" style="fill: rgb(255, 255, 255); stroke: rgb(38, 50, 56); stroke-miterlimit: 10; transform-origin: 70.4399px 450.975px;" id="elac9lpbnr30j" class="animable"></ellipse></g><polygon points="63.0877 431.213 57.6261 431.213 61.3207 441.8987 68.8706 441.8987 63.0877 431.213" style="fill: rgb(38, 50, 56); stroke: rgb(38, 50, 56); stroke-miterlimit: 10; transform-origin: 63.2483px 436.556px;" id="elm6q4uo13v7" class="animable"></polygon><path d="M63.0877,431.213l6.491,20.2521c.483,1.5068,2.1531,2.2763,3.6122,1.6644h0c1.2841-.5385,1.9474-1.9659,1.5309-3.2946l-6.0118-19.1807-5.6223,.5588Z" style="fill: rgb(209, 209, 209); stroke: rgb(38, 50, 56); stroke-miterlimit: 10; transform-origin: 68.9667px 441.997px;" id="elwhfifh7crn" class="animable"></path></g><g id="elo7l46vce888" class="animable" style="transform-origin: 59.7036px 341.913px;"><g id="el9sqg0ig9789" class="animable" style="transform-origin: 65.5261px 298.024px;"><g id="el19cy2v5auix" class="animable" style="transform-origin: 63.2721px 296.596px;"><g id="elhr6ajfod6mo"><rect x="31.34623" y="287.60073" width="66.96374" height="1.99959" style="fill: rgb(38, 50, 56); transform-origin: 64.8281px 288.601px; transform: rotate(-82.7716deg);" class="animable"></rect></g><g id="elbelw10v647"><rect x="49.06331" y="329.49661" width="20.52369" height="5.00013" style="fill: rgb(38, 50, 56); transform-origin: 59.3252px 331.997px; transform: rotate(-82.764deg);" class="animable"></rect></g><path d="M70.1961,262.8885c-.2465,3.0558-1.4024,5.456-2.5819,5.3608-1.1794-.0951-1.9357-2.6494-1.6893-5.7053,.2465-3.0558,1.4024-5.4559,2.5819-5.3608,1.1794,.0951,1.9357,2.6495,1.6893,5.7053Z" style="fill: rgb(255, 255, 255); stroke: rgb(38, 50, 56); stroke-miterlimit: 10; transform-origin: 68.0605px 262.716px;" id="elcfb9cc70bwd" class="animable"></path><polygon points="68.0483 255.2589 68.2086 250.7007 70.9918 251.3053 70.032 255.5104 68.0483 255.2589" style="fill: rgb(146, 227, 169); stroke: rgb(38, 50, 56); stroke-miterlimit: 10; transform-origin: 69.5201px 253.106px;" id="elokobvx3olp" class="animable"></polygon></g><g id="elcr40mpqf6tg" class="animable" style="transform-origin: 58.6401px 299.326px;"><g id="el988ssjycnw6"><rect x="26.35376" y="290.31768" width="66.96373" height="1.99963" style="fill: rgb(38, 50, 56); transform-origin: 59.8356px 291.317px; transform: rotate(-85.3501deg);" class="animable"></rect></g><g id="elnjf7g5fmb7"><rect x="46.02753" y="332.41719" width="20.52364" height="5.00013" style="fill: rgb(38, 50, 56); transform-origin: 56.2893px 334.917px; transform: rotate(-85.3403deg);" class="animable"></rect></g><path d="M64.0421,265.3902c-.1088,3.0638-1.1556,5.5135-2.3382,5.4715-1.1825-.042-2.0529-2.5598-1.9441-5.6236,.1089-3.0638,1.1557-5.5135,2.3382-5.4715,1.1826,.042,2.053,2.5598,1.9441,5.6236Z" style="fill: rgb(255, 255, 255); stroke: rgb(38, 50, 56); stroke-miterlimit: 10; transform-origin: 61.901px 265.314px;" id="eldxt7m73vfk4" class="animable"></path><polygon points="61.5535 257.8648 61.5088 253.3041 64.3163 253.7829 63.5466 258.0269 61.5535 257.8648" style="fill: rgb(146, 227, 169); stroke: rgb(38, 50, 56); stroke-miterlimit: 10; transform-origin: 62.9125px 255.665px;" id="elpucaea9851q" class="animable"></polygon></g><g id="elg1n2on2l2hg" class="animable" style="transform-origin: 69.2013px 299.033px;"><g id="el1jutt3nz831h"><rect x="37.48124" y="290.05193" width="66.96373" height="1.99954" style="fill: rgb(38, 50, 56); transform-origin: 70.9631px 291.052px; transform: rotate(-81.2928deg);" class="animable"></rect></g><g id="elnojsrd4xrbs"><rect x="54.07896" y="331.7911" width="20.52363" height="5.00011" style="fill: rgb(38, 50, 56); transform-origin: 64.3408px 334.291px; transform: rotate(-81.2829deg);" class="animable"></rect></g><path d="M76.9936,265.487c-.3253,3.0484-1.5429,5.4178-2.7195,5.2923-1.1766-.1256-1.8667-2.6986-1.5413-5.7471,.3253-3.0484,1.5429-5.4179,2.7195-5.2923,1.1765,.1256,1.8666,2.6986,1.5413,5.7471Z" style="fill: rgb(255, 255, 255); stroke: rgb(38, 50, 56); stroke-miterlimit: 10; transform-origin: 74.8632px 265.26px;" id="el5xodg0ut9fv" class="animable"></path><polygon points="75.0437 257.8044 75.3217 253.2519 78.0883 253.9282 77.0202 258.1071 75.0437 257.8044" style="fill: rgb(146, 227, 169); stroke: rgb(38, 50, 56); stroke-miterlimit: 10; transform-origin: 76.566px 255.679px;" id="elnw53q77q7g" class="animable"></polygon></g></g><path d="M68.4466,333.7565l-12.1158,99.2565s-6.7569,.932-10.7178-2.563c-3.9609-3.4949-4.8929-11.4168-3.9609-13.5138,.932-2.0969,8.6208-75.9568,10.0188-78.5197,1.398-2.563,12.5818-5.825,16.7757-4.66Z" style="fill: rgb(38, 50, 56); stroke: rgb(38, 50, 56); stroke-miterlimit: 10; transform-origin: 54.8828px 383.32px;" id="eln94joj2qgt" class="animable"></path></g><g id="elm99x5u3atad" class="animable" style="transform-origin: 90.5766px 394.878px;"><path d="M66.8191,444.1945l-.084-.0068c-.3155-.0225-7.7554-.6377-10.6704-6.4678-2.6006-5.2012-2.8824-11.0537-2.8931-11.3008l3.9961-.1738c.0024,.0498,.2651,5.2656,2.4751,9.6855,1.7744,3.5489,6.6807,4.1924,7.3242,4.2618,3.0894-.0313,47.5147-.4864,48.4761-.4864,.5742-.0293,3.0522-.8301,5.4121-2.5459,1.6875-1.2275,4.8809-6.3838,6.4971-9.3457l3.5117,1.916c-.4717,.8643-4.6939,8.5098-7.6563,10.6641-2.8496,2.0732-6.1855,3.3115-7.7646,3.3115-.9546,0-48.0645,.4824-48.5401,.4873l-.0839,.001Z" style="fill: rgb(209, 209, 209); stroke: rgb(38, 50, 56); stroke-miterlimit: 10; transform-origin: 92.0178px 435.22px;" id="elkgzf7bw2wwd" class="animable"></path><path d="M75.4234,345.5615s-7.3206,2.9282-10.4929,7.0766-2.9283,9.7609-2.9283,9.7609l9.5169,1.2201s-1.9522-6.1006,1.9521-8.0527l3.9044-1.9522-1.9522-8.0527Z" style="fill: rgb(209, 209, 209); stroke: rgb(38, 50, 56); stroke-miterlimit: 10; transform-origin: 69.6867px 354.59px;" id="elstr4v73zsue" class="animable"></path><path d="M73.9593,362.887s-.244-1.4641-5.8565-2.9283c-5.6125-1.4641-10.0049,1.4642-10.0049,1.4642l-7.8087,66.6178,14.1532,.7321,9.5169-65.8858Z" style="fill: rgb(38, 50, 56); stroke: rgb(38, 50, 56); stroke-miterlimit: 10; transform-origin: 62.1242px 394.161px;" id="el8yevk2tv2ht" class="animable"></path></g><rect x="104.3634" y="388.7183" width="91.1186" height="6.1355" rx="2.9282" ry="2.9282" style="fill: rgb(38, 50, 56); stroke: rgb(38, 50, 56); stroke-miterlimit: 10; transform-origin: 149.923px 391.786px;" id="elbu5rglmrw2d" class="animable"></rect><g id="eld5slsugfvo6" class="animable" style="transform-origin: 131.275px 373.063px;"><path d="M193.9665,312.2026s-2.0221-1.3481-5.617-2.0222c-3.595-.6741-2.0222,.6741-14.6044-2.6962-12.5822-3.3702-26.5125-2.4715-34.3764-.8987-7.8638,1.5728-24.2656-.4494-27.4112-.6741-3.1455-.2246-6.0341,1.3499-6.0341,1.3499,0,0-20.5539,2.9612-26.6503,6.7933-6.0965,3.832-6.7932,10.6253-6.2707,14.2832,.5226,3.6578-.8137,24.5322,2.7813,38.0131,2.1212,7.9547,6.5883,23.6505,9.8951,35.1851l.6015,3.0074s-1.6187,2.8327-1.0117,3.8443c.607,1.0117,3.035,4.2489,3.035,4.2489l1.4104,2.9198s-2.4715,3.3702-4.7184,5.8417c-2.2468,2.4715-8.3132,8.3133-8.3132,8.3133,0,0-6.9651,2.0221-8.0886,6.291-1.1234,4.269,1.3481,4.9431,1.3481,4.9431h43.139s5.1677-.4494,7.6392-4.9431c2.4715-4.4936,1.5728-7.6391,1.5728-10.7847v-9.212s11.6834-27.1866,16.8512-48.9807c5.1676-21.7942,4.269-23.5916,4.269-23.5916h26.9618s16.6265-6.7405,20.8955-15.2784c4.2689-8.5379,2.6961-15.9524,2.6961-15.9524Zm-80.4362,35.9491c-.629,3.9838-1.454,33.3991-3.0222,48.2675-1.3184,1.7714-2.8103,3.9896-2.5786,4.6847,.4047,1.214,.8094,3.6419,.8094,3.6419,0,0-1.214,.2023-1.4164,2.0233-.1081,.9736,.1325,2.5798,.3799,3.8669-1.2206,3.3797-2.2607,4.0216-2.2607,4.0216,0,0-1.348-11.6834-1.348-18.6486s1.7974-31.6802,.4493-41.1169c-1.3481-9.4366-2.2468-12.3574-2.2468-12.3574l10.7847-4.7184,2.2468,.674s-1.1234,5.3924-1.7974,9.6614Z" style="fill: rgb(117, 117, 117); stroke: rgb(38, 50, 56); stroke-miterlimit: 10; transform-origin: 131.275px 373.063px;" id="elswgl0vdn9o" class="animable"></path><path d="M113.0809,440.9455s5.1677-.4494,7.6392-4.9431c2.4715-4.4936,1.5728-7.6391,1.5728-10.7847v-6.1392c-.4039-.5093-1.4063-1.6608-3.3703-3.2974-2.6961-2.2469-8.3132-4.0444-10.7847-3.1456-.8069,.2934-1.5398,.8513-2.164,1.4684-.2532,.3279-.4316,.4798-.5002,.5312-.9944,1.1304-1.6048,2.2694-1.6048,2.2694l-2.9208-.2247s-3.8196-3.8196-6.9652-3.8196-4.2689,2.6962-4.2689,2.6962c0,0-2.4715,3.3702-4.7184,5.8417-2.2468,2.4715-8.3132,8.3133-8.3132,8.3133,0,0-6.9651,2.0221-8.0886,6.291-1.1234,4.269,1.3481,4.9431,1.3481,4.9431h43.139Z" style="fill: rgb(255, 255, 255); stroke: rgb(38, 50, 56); stroke-miterlimit: 10; transform-origin: 95.3766px 426.672px;" id="el48md79s0tjt" class="animable"></path><path d="M91.9608,432.6322c-1.5728,3.8196,0,6.0665,2.2468,7.1899,.5693,.2846,2.4246,.6847,4.874,1.1234h13.9993s5.1677-.4494,7.6392-4.9431c2.4715-4.4936,1.5728-7.6391,1.5728-10.7847v-6.1392c-.4039-.5093-1.4063-1.6608-3.3703-3.2974-2.6961-2.2469-8.3132-4.0444-10.7847-3.1456-.8069,.2934-1.5398,.8513-2.164,1.4684-.2532,.3279-.4316,.4798-.5002,.5312-.9944,1.1304-1.6048,2.2694-1.6048,2.2694,0,0-1.5727,6.291-3.3702,8.5379-1.7974,2.2468-6.9651,3.3702-8.5379,7.1898Z" style="fill: rgb(255, 255, 255); stroke: rgb(38, 50, 56); stroke-miterlimit: 10; transform-origin: 106.889px 426.672px;" id="elia61xd7blvi" class="animable"></path><g id="elnvx10a9jz9" class="animable" style="transform-origin: 92.4555px 437.688px;"><path d="M114.2043,439.5973c-9.886-3.1455-6.7404-3.1455-13.4809-3.8195-6.7405-.6741-8.7626,.674-8.7626,1.7974,0,1.1235,7.1208,3.3703,7.1208,3.3703h13.9993s1.291-.1124,2.891-.7857c-.5512-.1754-1.139-.3624-1.7676-.5625Z" style="fill: rgb(255, 255, 255); stroke: rgb(38, 50, 56); stroke-miterlimit: 10; transform-origin: 103.966px 438.271px;" id="elkbye2dr32lp" class="animable"></path><path d="M87.4671,439.3727c-4.7183-1.5728-9.6613-4.943-15.2784-4.943s-2.2468,6.5158-2.2468,6.5158h22.2436c-2.0221-.4494,0,0-4.7184-1.5728Z" style="fill: rgb(38, 50, 56); stroke: rgb(38, 50, 56); stroke-miterlimit: 10; transform-origin: 80.5623px 437.688px;" id="elkqf8782govd" class="animable"></path></g><path d="M114.2043,439.5973c-9.886-3.1455-6.7404-3.1455-13.4809-3.8195-6.7405-.6741-8.7626,.674-8.7626,1.7974,0,1.1235,7.1208,3.3703,7.1208,3.3703h13.9993s1.291-.1124,2.891-.7857c-.5512-.1754-1.139-.3624-1.7676-.5625Z" style="fill: rgb(38, 50, 56); stroke: rgb(38, 50, 56); stroke-miterlimit: 10; transform-origin: 103.966px 438.271px;" id="elkzgr03s386h" class="animable"></path><path d="M115.047,329.8599c-.0568,3.4585,.2807,6.159,.2807,6.159" style="fill: none; stroke: rgb(38, 50, 56); stroke-miterlimit: 10; transform-origin: 115.184px 332.939px;" id="el54falt0id6" class="animable"></path><path d="M131.5049,310.4051s-11.2341,2.6962-14.3797,8.7626c-.7858,1.5154-1.2911,3.3252-1.6071,5.1878" style="fill: none; stroke: rgb(38, 50, 56); stroke-miterlimit: 10; transform-origin: 123.511px 317.38px;" id="eldnuobeurj7d" class="animable"></path><line x1="100.7234" y1="341.6359" x2="94.657" y2="333.5474" style="fill: none; stroke: rgb(38, 50, 56); stroke-miterlimit: 10; transform-origin: 97.6902px 337.592px;" id="elniinctuwiv" class="animable"></line><line x1="100.274" y1="343.8828" x2="94.8817" y2="339.6138" style="fill: none; stroke: rgb(38, 50, 56); stroke-miterlimit: 10; transform-origin: 97.5779px 341.748px;" id="eljnm87e3j1o" class="animable"></line><polyline points="141.6156 330.4018 143.4131 343.4334 144.5364 333.3227" style="fill: none; stroke: rgb(38, 50, 56); stroke-miterlimit: 10; transform-origin: 143.076px 336.918px;" id="el2l8145zr37w" class="animable"></polyline></g><polygon points="60.9836 230.0973 86.0663 240.0259 87.1114 222.7816 60.9836 230.0973" style="fill: rgb(255, 255, 255); stroke: rgb(38, 50, 56); stroke-miterlimit: 10; transform-origin: 74.0475px 231.404px;" id="elulym0nrnpu" class="animable"></polygon><g id="elriqut3d34km" class="animable" style="transform-origin: 148.076px 257.943px;"><path d="M84.4986,221.0397l-1.3934,22.4699,26.4761,12.7155,1.7418,21.2506-2.2644,24.2117s-2.6127,1.0451-2.7869,1.5677c-.1742,.5225-.3484,4.0062-.3484,4.0062,0,0,8.8834-.3483,14.4574,1.0452,5.5739,1.3934,20.9022,1.3934,34.1402,1.0451,13.2381-.3484,17.5927,1.0451,21.0764,2.2644s17.7669,1.2193,19.8571,0c2.0903-1.2193-1.957-9.8141-2.6127-12.3672-8.7438-34.0433-2.9612-47.3783-2.9612-47.3783h13.2381s-.1742-14.109,2.787-21.0764c2.9611-6.9674,7.1415-12.0188,7.1415-12.0188,0,0-6.2706-1.7418-8.8834-2.9611-2.61279-1.2193-5.5739-4.3547-14.6315-5.2256-9.0577-.8709-16.896-1.2193-18.1153-1.5676-1.2193-.3484-3.1353-1.3935-3.8321-2.0903-.6967-.6967-2.9611-4.1804-4.703-3.4837-1.7418,.6968-2.6127,2.787-2.6127,2.787l-14.8058,12.8897-60.9648-3.6579v5.5739Z" style="fill: rgb(146, 227, 169); stroke: rgb(38, 50, 56); stroke-miterlimit: 10; transform-origin: 148.076px 257.943px;" id="elo553l5w2e0c" class="animable"></path><path d="M109.5813,256.2251s-3.8321-14.4573-2.9612-21.0764" style="fill: none; stroke: rgb(38, 50, 56); stroke-miterlimit: 10; transform-origin: 108.036px 245.687px;" id="elgi21rth0e19" class="animable"></path><path d="M102.9957,239.2892c.7391,2.6094,1.6092,5.1873,2.5793,7.1815" style="fill: none; stroke: rgb(38, 50, 56); stroke-miterlimit: 10; transform-origin: 104.285px 242.88px;" id="eljiecs5j3c1a" class="animable"></path><path d="M100.3495,227.4846s.6574,3.9445,1.7879,8.546" style="fill: none; stroke: rgb(38, 50, 56); stroke-miterlimit: 10; transform-origin: 101.243px 231.758px;" id="ell825xhv7p9g" class="animable"></path><path d="M138.4461,295.6887c2.1641,1.4409,4.2056,2.7227,5.9698,3.7085" style="fill: none; stroke: rgb(38, 50, 56); stroke-miterlimit: 10; transform-origin: 141.431px 297.543px;" id="elrhf48skud5" class="animable"></path><path d="M115.8879,279.0201s9.7157,7.7422,18.8422,14.1275" style="fill: none; stroke: rgb(38, 50, 56); stroke-miterlimit: 10; transform-origin: 125.309px 286.084px;" id="el1ycgwd0716o" class="animable"></path><path d="M131.6934,296.9395c6.2998,3.3404,14.9927,7.3615,20.8733,7.6975" style="fill: none; stroke: rgb(38, 50, 56); stroke-miterlimit: 10; transform-origin: 142.13px 300.788px;" id="elc88l10e8m7" class="animable"></path><path d="M123.7477,292.4108s1.7148,1.0717,4.3884,2.5812" style="fill: none; stroke: rgb(38, 50, 56); stroke-miterlimit: 10; transform-origin: 125.942px 293.701px;" id="elbvf3s7cgue8" class="animable"></path><path d="M155.3367,218.7985c-1.2963,1.9649-2.4061,4.039-3.0611,6.0768" style="fill: none; stroke: rgb(38, 50, 56); stroke-miterlimit: 10; transform-origin: 153.806px 221.837px;" id="el8e3i11c75sr" class="animable"></path><path d="M164.7929,207.9914s-3.853,3.3997-7.3873,7.9366" style="fill: none; stroke: rgb(38, 50, 56); stroke-miterlimit: 10; transform-origin: 161.099px 211.96px;" id="el7z6s9ctf41" class="animable"></path></g><path d="M127.5224,197.8731s.0889,.3974,.2471,1.0922c1.0542,4.6309,5.183,22.4759,6.5461,23.9905,1.5676,1.7418,6.4448,2.6127,10.4511-.6968,4.0062-3.3095,15.5025-16.025,15.5025-16.025l-4.8772-2.2644-27.8696-6.0965Z" style="fill: rgb(255, 255, 255); stroke: rgb(38, 50, 56); stroke-miterlimit: 10; transform-origin: 143.896px 211.188px;" id="ela9miy7lmb2f" class="animable"></path><g id="elujywl73jzkb" class="animable" style="transform-origin: 138.937px 185.541px;"><path d="M147.5744,163.9846s-4.2835-3.9979-7.8531-4.8546-14.8496,4.1407-16.2774,6.8536c-1.4279,2.7129-6.7109,12.7078-6.2825,17.4197,.4283,4.7119,3.8551,7.282,3.8551,7.282,0,0,2.2846,.1428,3.1413-.8567s-1.8562-3.8552,3.4268-8.8527c5.283-4.9974,19.5614-7.8531,20.7037-9.8521,1.1423-1.9989-.7139-7.1392-.7139-7.1392Z" style="fill: rgb(38, 50, 56); stroke: rgb(38, 50, 56); stroke-miterlimit: 10; transform-origin: 132.898px 174.862px;" id="el1ro6lcz3f2ih" class="animable"></path><path d="M124.5861,180.1192s4.7119-4.4263,9.5666-10.2804c4.8546-5.8542,15.4207-8.7098,21.4176-6.2825s5.8542,7.5675,4.1407,9.4237c-1.7134,1.8562-4.4263,2.8557-4.4263,2.8557,0,0-.7139-4.1407-5.1402-3.8552-4.4263,.2856-16.1346,4.4264-19.4186,5.997-3.2841,1.5706-6.1398,2.1417-6.1398,2.1417Z" style="fill: rgb(38, 50, 56); stroke: rgb(38, 50, 56); stroke-miterlimit: 10; transform-origin: 142.662px 171.405px;" id="elvs3dsmum1pq" class="animable"></path><path d="M153.0002,169.5532s3.1412,5.5686,3.4268,8.1387c.2856,2.5701,1.999,15.9918,1.999,20.1326s-3.1413,10.2804-6.4253,11.9938c-3.284,1.7135-6.8536,2.7129-9.9949,1.999-3.1412-.7139-9.281-4.1407-11.4227-6.8536-2.1418-2.7129-2.9985-5.4258-2.9985-5.4258,0,0-1.8562,1.285-4.1407-.5712-2.2846-1.8561-5.4258-6.2825-4.1408-8.8526,1.2851-2.5701,2.8557-2.1417,2.8557-2.1417,0,0,1.4279-6.8537,2.4273-7.8532,.9995-.9994,7.5676-5.5685,13.4218-7.9959,5.8541-2.4273,11.4227-3.1412,14.9923-2.5701Z" style="fill: rgb(255, 255, 255); stroke: rgb(38, 50, 56); stroke-miterlimit: 10; transform-origin: 138.715px 190.709px;" id="el202o4p2om09" class="animable"></path><path d="M142.1486,184.7597c0,.9857-.6073,1.7848-1.3564,1.7848-.7492,0-1.3565-.7991-1.3565-1.7848s.6073-1.7848,1.3565-1.7848c.7491,0,1.3564,.7991,1.3564,1.7848Z" style="fill: rgb(38, 50, 56); transform-origin: 140.792px 184.76px;" id="el1b1e4yp8y6y" class="animable"></path><path d="M154.1425,183.6888c0,.9858-.6073,1.7848-1.3565,1.7848-.7491,0-1.3564-.799-1.3564-1.7848,0-.9857,.6073-1.7848,1.3564-1.7848,.7492,0,1.3565,.7991,1.3565,1.7848Z" style="fill: rgb(38, 50, 56); transform-origin: 152.786px 183.689px;" id="el2o5fka27kj9" class="animable"></path><path d="M144.5759,181.4043s-4.7118-1.4278-8.9954,.9995" style="fill: none; stroke: rgb(38, 50, 56); stroke-miterlimit: 10; transform-origin: 140.078px 181.695px;" id="elglj6bdq67d7" class="animable"></path><path d="M150.0017,181.1187s3.2841-2.2845,5.8542-1.7134" style="fill: none; stroke: rgb(38, 50, 56); stroke-miterlimit: 10; transform-origin: 152.929px 180.216px;" id="el8k2ndzveagw" class="animable"></path><path d="M150.2873,189.1146s.9995,2.2846,.5711,3.1413c-.4283,.8567-3.4268,1.8562-4.5691,1.5706" style="fill: none; stroke: rgb(38, 50, 56); stroke-miterlimit: 10; transform-origin: 148.627px 191.495px;" id="eltd0dze23b3i" class="animable"></path><path d="M148.2883,198.3956s-3.9979,.7139-7.5675-.9995" style="fill: none; stroke: rgb(38, 50, 56); stroke-miterlimit: 10; transform-origin: 144.505px 197.97px;" id="el5ku2ixft1q" class="animable"></path><path d="M124.5861,180.1193c-.9995,.9994-2.4273,7.853-2.4273,7.853,0,0,.5711,.1429,1.2851,.9996,.7139,.8566,1.285,1.9989,1.8562,1.1422,.5711-.8567,.7139-2.1418,.4283-3.1412-.2856-.9995,.2856-2.1418,1.999-3.5697,1.7134-1.4278,3.284-4.8546,2.9985-5.4257-.2208-.4416-.9443-.9685-.9357-1.5147-2.6504,1.6485-4.684,3.1364-5.2041,3.6565Z" style="fill: rgb(38, 50, 56); stroke: rgb(38, 50, 56); stroke-miterlimit: 10; transform-origin: 126.459px 183.44px;" id="el5xnvag5bg7" class="animable"></path></g><g id="elygjnj9wte19" class="animable" style="transform-origin: 100.072px 218.569px;"><path d="M113.9359,208.3242s11.8446-.1742,13.2381-.1742,16.3734,4.3547,18.1152,4.8772c1.7419,.5226,2.4386,1.0451,2.0903,2.4386-.3484,1.3935-1.6115,1.0552-2.8308,.881-1.2192-.1742-6.0527-.7068-7.0978-1.2294-1.0451-.5225,2.787,2.9612,2.787,3.8321s-1.5677,5.7481-2.2644,6.4449c-.6968,.6967-1.3935,1.916-2.0903,2.6127-.6967,.6968-2.0902,1.3935-2.0902,1.3935,0,0-.6967,1.3935-2.9611,1.5677s-5.3998-2.787-6.0965-3.3095c-.6967-.5226-9.2318-2.787-12.3671-5.2256-3.1354-2.4386-4.5289-2.787-4.5289-2.787,0,0-21.9473,6.6191-31.7016,9.5802-9.7544,2.9612-15.6767,1.9161-18.6379-.1742-2.9611-2.0902-5.3997-9.5801-4.703-11.6704,.6968-2.0902,3.6579-6.0964,14.6316-9.406,10.9737-3.3095,19.1604-1.3934,26.6503-.8709,7.49,.5226,19.8571,1.2193,19.8571,1.2193Z" style="fill: rgb(255, 255, 255); stroke: rgb(38, 50, 56); stroke-miterlimit: 10; transform-origin: 100.072px 218.569px;" id="el1xqk3orvnd2" class="animable"></path><path d="M132.5737,218.6011s1.9161,1.7419,2.787,2.4386c.8709,.6968,2.7869,3.1354,2.7869,3.1354" style="fill: none; stroke: rgb(38, 50, 56); stroke-miterlimit: 10; transform-origin: 135.361px 221.388px;" id="elq0tw1jge0xq" class="animable"></path><path d="M128.7417,223.6525s3.4837,1.916,5.0513,5.7481" style="fill: none; stroke: rgb(38, 50, 56); stroke-miterlimit: 10; transform-origin: 131.267px 226.527px;" id="elevkv8t2w57q" class="animable"></path><line x1="137.4509" y1="215.1174" x2="132.7479" y2="212.853" style="fill: none; stroke: rgb(38, 50, 56); stroke-miterlimit: 10; transform-origin: 135.099px 213.985px;" id="elf5lp9oyc239" class="animable"></line></g><polygon points="162.87 252.2355 162.5265 257.9891 165.618 258.075 165.7039 252.7507 162.87 252.2355" style="fill: rgb(38, 50, 56); transform-origin: 164.115px 255.155px;" id="elhqm4ktaxslr" class="animable"></polygon><line x1="189.8806" y1="251.8705" x2="169.501" y2="250.477" style="fill: none; stroke: rgb(38, 50, 56); stroke-miterlimit: 10; transform-origin: 179.691px 251.174px;" id="elgqzyapqj6e5" class="animable"></line><path d="M180.1263,251.5221s-13.0639,3.6579-15.6767,3.6579" style="fill: none; stroke: rgb(38, 50, 56); stroke-miterlimit: 10; transform-origin: 172.288px 253.351px;" id="eli4ck2blsr4j" class="animable"></path><path d="M205.92469,276.58s-6.3418-2.6547-9.262,1.2462c-1.4564,1.9455-3.1455,28.984-4.4936,31.9049-1.3481,2.9208-9.8861,3.3702-14.155,6.7404-4.269,3.3703-1.3481,6.9652-9.212,16.4018-7.8639,9.4367-23.8163,10.1107-23.8163,10.1107,0,0-1.1522,.1118-1.4472,2.4715h58.5515l3.8346-68.8755Z" style="fill: rgb(38, 50, 56); stroke: rgb(38, 50, 56); stroke-miterlimit: 10; transform-origin: 174.732px 310.577px;" id="elucq3oxaqe4e" class="animable"></path><g id="el6cm29jwaezb" class="animable" style="transform-origin: 205.688px 387.88px;"><path d="M240.86029,385.9635c-1.94829-36.1798-19.4659-64.651-39.1266-63.5923-19.66069,1.0587-34.0195,31.2465-32.0713,67.4262,1.9483,36.1798,19.4658,64.651,39.1266,63.5923,19.66069-1.0587,34.01949-31.2465,32.07129-67.4262Zm-28.3576,59.7057c-16.2265,.8738-30.7713-24.2434-32.48669-56.1008-1.7156-31.8574,10.0479-58.3913,26.27429-59.2651,16.2264-.8737,30.7712,24.2434,32.4866,56.1009,1.7156,31.8574-10.04789,58.3913-26.2742,59.265Z" style="fill: rgb(38, 50, 56); stroke: rgb(38, 50, 56); stroke-miterlimit: 10; transform-origin: 205.261px 387.88px;" id="elcy55pe0vhz9" class="animable"></path><g id="elyx2ztkqsgz"><ellipse cx="210.74244" cy="388.05835" rx="28.08288" ry="57.76652" style="fill: rgb(146, 227, 169); stroke: rgb(38, 50, 56); stroke-miterlimit: 10; transform-origin: 210.742px 388.058px; transform: rotate(-3.08237deg);" class="animable"></ellipse></g><g id="el8esfx68mc4y"><ellipse cx="212.33564" cy="387.97258" rx="24.62478" ry="53.93505" style="fill: rgb(255, 255, 255); stroke: rgb(38, 50, 56); stroke-miterlimit: 10; transform-origin: 212.336px 387.973px; transform: rotate(-3.08234deg);" class="animable"></ellipse></g></g><path d="M156.4385,347.7577s-15.1293-1.7082-19.5217,.732-5.8565,21.4739-5.8565,21.4739h10.2489s1.4641-10.9809,3.4163-13.1771,10.981-1.4642,10.981-1.4642l.732-7.5646Z" style="fill: rgb(209, 209, 209); stroke: rgb(38, 50, 56); stroke-miterlimit: 10; transform-origin: 143.749px 358.57px;" id="eldcztlu11rql" class="animable"></path><path d="M129.8402,365.0832l-6.5886,66.8619,13.9092-.7321,6.8326-60.2733s-3.9043-11.469-14.1532-5.8565Z" style="fill: rgb(38, 50, 56); stroke: rgb(38, 50, 56); stroke-miterlimit: 10; transform-origin: 133.622px 397.741px;" id="elzwt9nvafrl" class="animable"></path><g id="elwuwwcu37x"><rect x="157.64857" y="274.59757" width="9.68325" height="4.99955" style="fill: rgb(38, 50, 56); transform-origin: 162.49px 277.097px; transform: rotate(-87.1108deg);" class="animable"></rect></g><g id="elnc1nnq53jcj"><rect x="141.06806" y="300.06747" width="40.32087" height="4.00016" style="fill: rgb(38, 50, 56); transform-origin: 161.228px 302.068px; transform: rotate(-87.1169deg);" class="animable"></rect></g><g id="el35blpt230ys"><rect x="140.24262" y="338.6879" width="38.01911" height="4.9995" style="fill: rgb(117, 117, 117); stroke: rgb(38, 50, 56); stroke-miterlimit: 10; transform-origin: 159.252px 341.188px; transform: rotate(-87.1108deg);" class="animable"></rect></g><line x1="157.5272" y1="263.9914" x2="134.4008" y2="270.8834" style="fill: none; stroke: rgb(38, 50, 56); stroke-linecap: round; stroke-linejoin: round; stroke-width: 3px; transform-origin: 145.964px 267.437px;" id="elhys6s3so3ka" class="animable"></line><polygon points="155.383 257.2526 155.383 265.9825 160.238 272.1359 163.1939 272.1359 167.3291 266.9014 168.4012 258.0184 155.383 257.2526" style="fill: rgb(117, 117, 117); stroke: rgb(38, 50, 56); stroke-miterlimit: 10; transform-origin: 161.892px 264.694px;" id="els480xiu571h" class="animable"></polygon><polygon points="163.1939 272.1359 166.7681 272.1359 170.4917 267.7428 171.8283 258.1952 168.4012 258.0184 167.3291 266.9014 163.1939 272.1359" style="fill: rgb(38, 50, 56); stroke: rgb(38, 50, 56); stroke-miterlimit: 10; transform-origin: 167.511px 265.077px;" id="el0su1wa44yhjq" class="animable"></polygon><path d="M143.3757,244.3083l-7.5854-12.0293c-1.0309-1.635-.5413-3.7962,1.0938-4.8272h0c1.6349-1.0309,3.7961-.5413,4.8271,1.0937l7.5854,12.0294-5.9209,3.7334Z" style="fill: rgb(38, 50, 56); transform-origin: 142.274px 235.61px;" id="elw0n72v0dkj" class="animable"></path><path d="M164.0948,242.5371l-2.9598-.4773s-3.1507-5.8241-9.1657-6.3015c-6.0149-.4773-9.7385,3.2462-10.6933,7.1607-.9547,3.9145,2.005,8.1155,5.8241,9.6431l17.1856,1.1457-.1909-11.1707Z" style="fill: rgb(117, 117, 117); stroke: rgb(38, 50, 56); stroke-miterlimit: 10; transform-origin: 152.691px 244.712px;" id="elmln5s3vxnz" class="animable"></path><path d="M165.1728,241.5969c-1.8294-.0759-3.4318,2.7415-3.579,6.2928-.1471,3.5513,1.2167,6.4916,3.0461,6.5674l25.6233,1.6308,.6522-15.74-25.7426,1.249Z" style="fill: rgb(196, 196, 196); stroke: rgb(38, 50, 56); stroke-miterlimit: 10; transform-origin: 176.249px 248.218px;" id="ele3xlah0dntd" class="animable"></path><path d="M173.2437,248.0935c-.1303,3.1437,.7559,5.873,2.123,7.0463l14.8965,.9481,.6522-15.74-14.6861,.7126c-1.5994,.9001-2.8469,3.6859-2.9856,7.033Z" style="fill: rgb(117, 117, 117); stroke: rgb(38, 50, 56); stroke-miterlimit: 10; transform-origin: 182.073px 248.218px;" id="el1b71y54huy5" class="animable"></path><path d="M194.6436,248.386c-.1801,4.3464-2.1413,7.7947-4.3804,7.702-2.2391-.0928-3.9082-3.6916-3.7281-8.0381,.1801-4.3464,2.1413-7.7947,4.3804-7.702,2.2391,.0928,3.9082,3.6916,3.7281,8.0381Z" style="fill: rgb(38, 50, 56); stroke: rgb(38, 50, 56); stroke-miterlimit: 10; transform-origin: 190.589px 248.218px;" id="elunq5hopa2c9" class="animable"></path><polyline points="100.848 408.9947 89.1129 400.9016 100.848 403.9365" style="fill: none; stroke: rgb(38, 50, 56); stroke-miterlimit: 10; transform-origin: 94.9804px 404.948px;" id="elyiea9ygemo" class="animable"></polyline><path d="M112.7854,408.5901s9.7119,0,8.7002-1.0117c-1.0116-1.0116-2.6303-1.8209-4.4512-1.2139" style="fill: none; stroke: rgb(38, 50, 56); stroke-miterlimit: 10; transform-origin: 117.172px 407.373px;" id="eloy5bkktk0q" class="animable"></path></g></g><defs>     <filter id="active" height="200%">         <feMorphology in="SourceAlpha" result="DILATED" operator="dilate" radius="2"></feMorphology>                <feFlood flood-color="#32DFEC" flood-opacity="1" result="PINK"></feFlood>        <feComposite in="PINK" in2="DILATED" operator="in" result="OUTLINE"></feComposite>        <feMerge>            <feMergeNode in="OUTLINE"></feMergeNode>            <feMergeNode in="SourceGraphic"></feMergeNode>        </feMerge>    </filter>    <filter id="hover" height="200%">        <feMorphology in="SourceAlpha" result="DILATED" operator="dilate" radius="2"></feMorphology>                <feFlood flood-color="#ff0000" flood-opacity="0.5" result="PINK"></feFlood>        <feComposite in="PINK" in2="DILATED" operator="in" result="OUTLINE"></feComposite>        <feMerge>            <feMergeNode in="OUTLINE"></feMergeNode>            <feMergeNode in="SourceGraphic"></feMergeNode>        </feMerge>            <feColorMatrix type="matrix" values="0   0   0   0   0                0   1   0   0   0                0   0   0   0   0                0   0   0   1   0 "></feColorMatrix>    </filter></defs></svg>